<svg xmlns="http://www.w3.org/2000/svg" xmlns:xlink="http://www.w3.org/1999/xlink" viewBox="0 0 128 42"><path d="M 84.434 15.532 L 72.523 15.532 C 70.922 15.57 69.645 16.879 69.645 18.48 C 69.645 20.081 70.922 21.39 72.523 21.428 L 75.619 21.428 C 75.175 29.132 68.788 35.243 60.977 35.243 C 52.877 35.243 46.311 28.673 46.311 20.571 C 46.311 12.467 52.877 5.902 60.977 5.902 L 60.76 5.902 L 60.76 5.897 L 72.555 5.897 C 73.291 5.891 73.997 5.607 74.532 5.103 C 75.418 4.277 75.709 2.994 75.266 1.867 C 74.822 0.74 73.734 -0 72.523 0 L 61.148 0.002 L 60.76 0.002 C 60.725 0.002 60.691 0.002 60.659 0.005 C 49.449 0.172 40.413 9.315 40.413 20.571 C 40.413 31.931 49.62 41.142 60.977 41.142 C 72.044 41.142 81.072 32.392 81.521 21.428 L 84.434 21.428 C 86.047 21.406 87.342 20.093 87.342 18.48 C 87.342 16.868 86.047 15.554 84.434 15.532 Z" fill="rgb(124,212,253)"></path><g transform="translate(54.067 15.36)" id="ss39270046_2"><path d="M 6.258 3.129 C 6.258 4.857 4.857 6.258 3.129 6.258 C 1.401 6.258 0 4.857 0 3.129 C 0 1.401 1.401 0 3.129 0 C 4.857 0 6.258 1.401 6.258 3.129 Z M 13.653 3.129 C 13.653 4.857 12.252 6.258 10.524 6.258 C 8.796 6.258 7.396 4.857 7.396 3.129 C 7.396 1.401 8.796 0 10.524 0 C 12.252 0 13.653 1.401 13.653 3.129 Z" fill="rgb(124,212,253)"></path></g></svg>